<svg xmlns="http://www.w3.org/2000/svg" viewBox="0 0 520 140">
  <!-- LAPS bars as building silhouettes with different rooftops -->
  <g fill="#0A1628">
    <!-- L - Tower with flat top -->
    <rect x="25" y="20" width="20" height="100"/>
    
    <!-- A - Building with pointed/triangular roof -->
    <rect x="52" y="30" width="20" height="90"/>
    <polygon points="52,30 62,15 72,30"/>
    
    <!-- P - Building with slanted roof -->
    <rect x="79" y="35" width="20" height="85"/>
    <polygon points="79,35 79,25 99,35"/>
    
    <!-- S - Stepped building -->
    <rect x="106" y="50" width="20" height="70"/>
    <rect x="109" y="35" width="14" height="15"/>
  </g>
  
  <!-- Windows -->
  <g fill="#C9A227">
    <!-- L windows (3 columns x 8 rows) -->
    <rect x="27" y="25" width="3" height="4"/>
    <rect x="27" y="33" width="3" height="4"/>
    <rect x="27" y="41" width="3" height="4"/>
    <rect x="27" y="49" width="3" height="4"/>
    <rect x="27" y="57" width="3" height="4"/>
    <rect x="27" y="65" width="3" height="4"/>
    <rect x="27" y="73" width="3" height="4"/>
    <rect x="27" y="81" width="3" height="4"/>
    <rect x="27" y="89" width="3" height="4"/>
    <rect x="27" y="97" width="3" height="4"/>
    <rect x="33" y="25" width="3" height="4"/>
    <rect x="33" y="33" width="3" height="4"/>
    <rect x="33" y="41" width="3" height="4"/>
    <rect x="33" y="49" width="3" height="4"/>
    <rect x="33" y="57" width="3" height="4"/>
    <rect x="33" y="65" width="3" height="4"/>
    <rect x="33" y="73" width="3" height="4"/>
    <rect x="33" y="81" width="3" height="4"/>
    <rect x="33" y="89" width="3" height="4"/>
    <rect x="33" y="97" width="3" height="4"/>
    <rect x="39" y="25" width="3" height="4"/>
    <rect x="39" y="33" width="3" height="4"/>
    <rect x="39" y="41" width="3" height="4"/>
    <rect x="39" y="49" width="3" height="4"/>
    <rect x="39" y="57" width="3" height="4"/>
    <rect x="39" y="65" width="3" height="4"/>
    <rect x="39" y="73" width="3" height="4"/>
    <rect x="39" y="81" width="3" height="4"/>
    <rect x="39" y="89" width="3" height="4"/>
    <rect x="39" y="97" width="3" height="4"/>
    
    <!-- A windows (3 columns x 8 rows) -->
    <rect x="54" y="35" width="3" height="4"/>
    <rect x="54" y="43" width="3" height="4"/>
    <rect x="54" y="51" width="3" height="4"/>
    <rect x="54" y="59" width="3" height="4"/>
    <rect x="54" y="67" width="3" height="4"/>
    <rect x="54" y="75" width="3" height="4"/>
    <rect x="54" y="83" width="3" height="4"/>
    <rect x="54" y="91" width="3" height="4"/>
    <rect x="54" y="99" width="3" height="4"/>
    <rect x="60" y="35" width="3" height="4"/>
    <rect x="60" y="43" width="3" height="4"/>
    <rect x="60" y="51" width="3" height="4"/>
    <rect x="60" y="59" width="3" height="4"/>
    <rect x="60" y="67" width="3" height="4"/>
    <rect x="60" y="75" width="3" height="4"/>
    <rect x="60" y="83" width="3" height="4"/>
    <rect x="60" y="91" width="3" height="4"/>
    <rect x="60" y="99" width="3" height="4"/>
    <rect x="66" y="35" width="3" height="4"/>
    <rect x="66" y="43" width="3" height="4"/>
    <rect x="66" y="51" width="3" height="4"/>
    <rect x="66" y="59" width="3" height="4"/>
    <rect x="66" y="67" width="3" height="4"/>
    <rect x="66" y="75" width="3" height="4"/>
    <rect x="66" y="83" width="3" height="4"/>
    <rect x="66" y="91" width="3" height="4"/>
    <rect x="66" y="99" width="3" height="4"/>
    
    <!-- P windows (3 columns x 7 rows) -->
    <rect x="81" y="40" width="3" height="4"/>
    <rect x="81" y="48" width="3" height="4"/>
    <rect x="81" y="56" width="3" height="4"/>
    <rect x="81" y="64" width="3" height="4"/>
    <rect x="81" y="72" width="3" height="4"/>
    <rect x="81" y="80" width="3" height="4"/>
    <rect x="81" y="88" width="3" height="4"/>
    <rect x="81" y="96" width="3" height="4"/>
    <rect x="87" y="40" width="3" height="4"/>
    <rect x="87" y="48" width="3" height="4"/>
    <rect x="87" y="56" width="3" height="4"/>
    <rect x="87" y="64" width="3" height="4"/>
    <rect x="87" y="72" width="3" height="4"/>
    <rect x="87" y="80" width="3" height="4"/>
    <rect x="87" y="88" width="3" height="4"/>
    <rect x="87" y="96" width="3" height="4"/>
    <rect x="93" y="40" width="3" height="4"/>
    <rect x="93" y="48" width="3" height="4"/>
    <rect x="93" y="56" width="3" height="4"/>
    <rect x="93" y="64" width="3" height="4"/>
    <rect x="93" y="72" width="3" height="4"/>
    <rect x="93" y="80" width="3" height="4"/>
    <rect x="93" y="88" width="3" height="4"/>
    <rect x="93" y="96" width="3" height="4"/>
    
    <!-- S windows - penthouse -->
    <rect x="111" y="38" width="3" height="4"/>
    <rect x="117" y="38" width="3" height="4"/>
    <!-- S windows - main building (3 columns x 5 rows) -->
    <rect x="108" y="55" width="3" height="4"/>
    <rect x="108" y="63" width="3" height="4"/>
    <rect x="108" y="71" width="3" height="4"/>
    <rect x="108" y="79" width="3" height="4"/>
    <rect x="108" y="87" width="3" height="4"/>
    <rect x="108" y="95" width="3" height="4"/>
    <rect x="114" y="55" width="3" height="4"/>
    <rect x="114" y="63" width="3" height="4"/>
    <rect x="114" y="71" width="3" height="4"/>
    <rect x="114" y="79" width="3" height="4"/>
    <rect x="114" y="87" width="3" height="4"/>
    <rect x="114" y="95" width="3" height="4"/>
    <rect x="120" y="55" width="3" height="4"/>
    <rect x="120" y="63" width="3" height="4"/>
    <rect x="120" y="71" width="3" height="4"/>
    <rect x="120" y="79" width="3" height="4"/>
    <rect x="120" y="87" width="3" height="4"/>
    <rect x="120" y="95" width="3" height="4"/>
  </g>
  
  <!-- LAPS brand name -->
  <text x="152" y="68" font-family="'Arial Black', 'Arial', sans-serif" font-size="58" font-weight="900" fill="#0A1628">LAPS.</text>
  
  <!-- Tagline text -->
  <g font-family="'Arial', 'Helvetica', sans-serif" fill="#64748B" font-size="18" font-weight="500">
    <text x="152" y="95">Landscape. Architecture.</text>
    <text x="152" y="118">Planning Studios.</text>
  </g>
</svg>
